<?xml version="1.0" encoding="UTF-8" standalone="no"?>
<!-- Created with Inkscape (http://www.inkscape.org/) -->

<svg
   xmlns:dc="http://purl.org/dc/elements/1.1/"
   xmlns:cc="http://creativecommons.org/ns#"
   xmlns:rdf="http://www.w3.org/1999/02/22-rdf-syntax-ns#"
   xmlns:svg="http://www.w3.org/2000/svg"
   xmlns="http://www.w3.org/2000/svg"
   xmlns:sodipodi="http://sodipodi.sourceforge.net/DTD/sodipodi-0.dtd"
   xmlns:inkscape="http://www.inkscape.org/namespaces/inkscape"
   id="svg2985"
   version="1.1"
   inkscape:version="0.48.2 r9819"
   width="746.16687"
   height="889.73749"
   sodipodi:docname="logo.svg">
  <title
     id="title3823">Music for the Blind logo</title>
  <metadata
     id="metadata2991">
    <rdf:RDF>
      <cc:Work
         rdf:about="">
        <dc:format>image/svg+xml</dc:format>
        <dc:type
           rdf:resource="http://purl.org/dc/dcmitype/StillImage" />
        <dc:title>Music for the Blind logo</dc:title>
        <dc:date>2012-07-10</dc:date>
        <dc:creator>
          <cc:Agent>
            <dc:title>Iain Dawson</dc:title>
          </cc:Agent>
        </dc:creator>
        <dc:description>Canonical version of the Music for the Blind (musicfortheblind.co.uk) logo.</dc:description>
      </cc:Work>
    </rdf:RDF>
  </metadata>
  <defs
     id="defs2989" />
  <sodipodi:namedview
     pagecolor="#ffffff"
     bordercolor="#666666"
     borderopacity="1"
     objecttolerance="10"
     gridtolerance="10"
     guidetolerance="10"
     inkscape:pageopacity="0"
     inkscape:pageshadow="2"
     inkscape:window-width="1597"
     inkscape:window-height="1006"
     id="namedview2987"
     showgrid="false"
     inkscape:zoom="0.6675088"
     inkscape:cx="58.078164"
     inkscape:cy="418.49145"
     inkscape:window-x="83"
     inkscape:window-y="0"
     inkscape:window-maximized="1"
     inkscape:current-layer="svg2985"
     fit-margin-top="0"
     fit-margin-left="0"
     fit-margin-right="0"
     fit-margin-bottom="0"
     showborder="true" />
  <path
     style="fill:#fafafa;fill-opacity:1"
     d="M 569.05553,669.21599 C 542.82256,658.2217 502.35993,645.69475 469.68954,638.45298 345.81473,610.99468 208.10939,620.24453 93.91389,663.69432 l -10.14163,3.85875 2.5192,-6.58116 c 21.15149,-55.25619 34.61087,-115.52851 40.43712,-181.08117 1.72595,-19.41902 1.73086,-84.75369 0.008,-105 -6.77071,-79.56184 -24.98173,-150.39648 -55.99845,-217.8149 l -6.92707,-15.05678 9.62228,-3.46627 c 33.66923,-12.12883 57.18635,-16.32867 86.12219,-15.38028 42.42664,1.39056 73.25452,12.99415 140,52.69593 74.55222,44.34541 111.58999,57.44225 166.16645,58.75771 34.96415,0.84275 64.93874,-3.45819 102.32112,-14.68167 5.23184,-1.57078 9.51243,-2.75428 9.51243,-2.63 0,0.12427 -1.15075,3.56727 -2.55722,7.65111 -16.25937,47.21076 -27.87916,104.17227 -32.62373,159.92515 -1.72296,20.24631 -1.71805,85.58098 0.008,105 4.00634,45.07641 11.05023,85.20922 21.67602,123.5 4.20478,15.1522 13.83768,44.80907 18.27068,56.25 1.3121,3.38634 1.62458,5.20981 0.88028,5.13679 -0.63466,-0.0623 -7.00393,-2.56496 -14.15393,-5.56154 z"
     id="path3778"
     inkscape:connector-curvature="0" />
  <path
     id="path2995"
     style="fill:#cc5522;fill-opacity:1"
     d="M 740.21243,393.60741 C 724.94793,349.18771 696.73703,298.06764 662.00516,251.89074 591.61935,158.3109 483.72683,72.773487 369.1899,19.746205 l -15.86564,-7.34533 4.31966,-1.25066 c 8.68656,-2.5149899 26.75598,-6.2235299 40.41161,-8.2940099 20.13853,-3.05342004 58.67695,-3.80740004 78.5,-1.53579 93.34561,10.6968499 168.81839,60.5518699 217.8751,143.9216749 36.8459,62.618 55.3675,145.97989 51.1446,230.19135 -0.623,12.42369 -1.4492,23.44401 -1.8359,24.48958 -0.5237,1.4156 -1.4243,-0.19715 -3.5269,-6.31561 z m -484.1569,495.62658 c -25.94031,-3.0873 -43.19794,-6.6548 -62,-12.8165 C 104.636,847.11321 37.48244,777.32772 4.4595596,679.39074 c -2.59633,-7.7 -4.59966997,-14.1247 -4.45187997,-14.2771 0.1478,-0.15241 5.61901997,3.04824 12.15828037,7.11255 108.19365,67.24499 224.77698,107.43263 345.88957,119.23219 25.64113,2.49813 65.40831,2.94862 89.18963,1.01037 36.61466,-2.98422 75.36196,-9.6617 102.26631,-17.62398 l 9.54406,-2.82454 -6.5,6.01775 c -16.18872,14.98765 -43.42518,35.46571 -66.5,49.99884 -53.86248,33.92397 -113.35406,55.16547 -170.35595,60.82557 -9.48937,0.9423 -52.59279,1.2108 -59.64405,0.3716 z"
     inkscape:connector-curvature="0" />
</svg>
